<?xml version="1.0" standalone="no"?>
<!DOCTYPE svg PUBLIC "-//W3C//DTD SVG 20010904//EN"
 "http://www.w3.org/TR/2001/REC-SVG-20010904/DTD/svg10.dtd">
<svg version="1.0" xmlns="http://www.w3.org/2000/svg"
 width="1170.000000pt" height="1137.000000pt" viewBox="0 0 1170.000000 1137.000000"
 preserveAspectRatio="xMidYMid meet">

<g transform="translate(0.000000,1137.000000) scale(0.100000,-0.100000)"
fill="#000000" stroke="none">
<path d="M6218 10473 c-10 -3 -15 -10 -11 -20 6 -16 2 -16 -106 4 -46 8 -64 6
-57 -6 3 -5 -3 -11 -14 -14 -11 -3 -20 0 -20 6 0 9 -2 9 -8 1 -8 -12 -5 -12
-117 -14 -44 -1 -84 -5 -90 -10 -5 -4 -32 -10 -60 -13 -79 -8 -276 -65 -292
-84 -8 -10 -11 -12 -8 -4 6 9 1 9 -17 -3 -13 -9 -49 -24 -79 -35 -74 -25 -130
-54 -153 -80 -11 -12 -24 -21 -30 -21 -6 0 -38 -28 -71 -62 -45 -48 -64 -77
-78 -119 -20 -66 -21 -73 -5 -63 8 5 9 0 4 -17 -4 -13 -13 -46 -21 -74 -18
-67 -33 -103 -35 -85 -3 33 -69 -311 -75 -390 -3 -47 -1 -118 5 -159 12 -87
52 -208 65 -201 6 3 8 10 6 15 -26 62 -49 154 -54 215 -4 46 -3 65 3 50 4 -14
8 -36 9 -50 1 -29 53 -200 61 -200 9 0 81 128 92 164 9 29 7 53 -11 128 -12
51 -24 103 -27 116 -2 13 -9 20 -14 17 -6 -3 -10 -1 -10 4 0 6 5 11 10 11 6 0
10 15 10 33 0 17 5 50 11 72 6 22 17 65 24 95 7 30 14 48 15 40 0 -8 16 22 34
67 36 90 100 193 145 237 l29 28 -5 -41 c-8 -59 4 -50 17 13 13 63 34 89 44
54 9 -34 7 -134 -4 -208 -5 -36 -12 -96 -15 -135 -3 -38 -8 -86 -11 -105 -7
-45 3 -35 15 16 10 39 10 38 5 -11 -12 -130 -16 -146 -30 -141 -7 3 -16 1 -19
-4 -3 -5 -12 -7 -20 -3 -8 3 -15 0 -15 -7 0 -6 -5 -8 -10 -5 -6 3 -13 -1 -16
-9 -3 -9 -16 -16 -28 -16 -28 0 -46 -18 -46 -46 0 -28 22 -48 37 -33 8 8 17 7
32 -3 22 -13 28 -44 10 -50 -6 -2 -5 -14 5 -33 9 -17 16 -36 16 -43 0 -7 5
-10 10 -7 6 3 10 -2 11 -12 1 -30 7 -54 15 -61 4 -4 4 2 1 13 -7 20 -7 20 8 1
20 -27 19 -36 -5 -36 -11 0 -20 -4 -20 -9 0 -15 40 -20 54 -5 12 11 15 10 20
-9 6 -20 7 -21 20 -5 7 10 16 15 19 11 4 -3 7 1 7 11 0 9 5 14 10 11 6 -3 10
-15 10 -26 0 -13 4 -18 12 -13 8 5 9 2 5 -9 -3 -9 2 -41 12 -71 10 -31 14 -53
9 -50 -5 3 -6 -7 -3 -23 11 -47 14 -55 24 -49 5 3 7 -3 4 -14 -3 -11 -1 -20 5
-20 6 0 8 -8 6 -17 -3 -10 4 -56 16 -103 19 -76 37 -193 45 -290 4 -45 -24
-252 -36 -266 -5 -6 -13 -35 -19 -64 -5 -29 -20 -69 -32 -89 l-23 -36 -5 35
c-5 34 -6 34 -13 9 -6 -24 -18 -31 -67 -44 -15 -3 -70 -36 -75 -44 -3 -6 16
-8 50 -5 44 4 56 2 61 -10 9 -23 21 -19 38 12 l15 27 -2 -40 c-1 -22 -7 -44
-13 -50 -17 -15 -33 -72 -24 -81 5 -5 0 -36 -11 -69 -16 -47 -19 -74 -14 -125
4 -36 11 -69 15 -75 5 -5 15 -53 24 -105 27 -153 74 -327 107 -391 31 -59 106
-146 117 -135 3 4 -11 24 -32 45 -43 44 -43 41 0 161 24 65 28 94 32 217 4
158 -9 317 -33 378 l-15 40 5 -50 c5 -55 -7 -30 -19 40 -5 31 -4 37 4 25 9
-12 10 -8 6 19 -3 18 -6 41 -7 50 0 13 -2 12 -8 -3 -5 -14 -10 -6 -20 35 -14
58 -4 126 18 121 6 -1 11 3 11 9 0 5 4 8 9 5 5 -4 11 -1 13 6 3 7 10 8 17 4 9
-6 11 -20 6 -45 -5 -29 -4 -34 6 -23 18 17 29 15 29 -5 0 -13 9 -8 34 18 18
20 43 39 55 42 19 5 25 -1 40 -36 l18 -42 -1 59 c0 32 4 61 9 63 6 2 16 -27
23 -64 17 -88 32 -104 26 -27 -3 32 -7 67 -8 76 -2 10 1 15 8 12 13 -5 39
-118 39 -166 0 -16 4 -28 9 -28 4 0 8 -8 8 -17 0 -10 12 -40 25 -68 14 -27 25
-56 25 -62 0 -7 5 -13 10 -13 6 0 10 -5 10 -11 0 -11 57 -88 75 -101 6 -5 6
-8 -2 -8 -6 0 -33 25 -60 56 -26 32 -61 71 -78 89 -16 17 -36 40 -43 51 -10
16 -11 15 -1 -6 7 -14 27 -44 46 -67 19 -23 34 -44 34 -47 -1 -3 2 -7 6 -8 4
-2 23 -20 42 -41 18 -20 45 -40 60 -44 14 -3 42 -19 61 -34 19 -15 47 -31 63
-34 15 -4 27 -11 27 -15 0 -4 -26 -21 -57 -38 -32 -17 -78 -42 -103 -55 -25
-14 -64 -49 -87 -78 -50 -63 -56 -69 -105 -110 -23 -18 -50 -58 -69 -97 -20
-41 -53 -87 -85 -119 -32 -31 -67 -80 -90 -125 -36 -73 -214 -331 -222 -323
-5 5 72 135 166 280 71 110 49 102 -29 -10 -27 -38 -69 -98 -94 -133 -27 -38
-52 -90 -65 -133 -18 -59 -39 -95 -119 -203 -54 -72 -136 -185 -182 -251 -139
-197 -152 -215 -157 -210 -7 6 39 81 94 154 27 35 58 76 68 90 37 49 -65 -54
-118 -119 -50 -63 -146 -210 -180 -278 -25 -49 -45 -152 -52 -273 -6 -92 -4
-116 14 -175 24 -79 73 -165 137 -240 44 -51 44 -53 30 -81 -36 -69 -1 -143
107 -228 142 -111 357 -195 656 -254 184 -37 269 -50 405 -61 l108 -9 52 39
c102 78 146 94 532 195 241 63 559 177 722 259 49 24 116 54 151 66 l63 23
-28 17 c-16 9 -59 43 -97 74 -72 59 -145 105 -306 196 -175 98 -324 206 -619
446 -25 21 -29 21 -71 7 -25 -9 -48 -20 -51 -25 -10 -15 -155 -38 -284 -44
-100 -5 -137 -3 -220 15 -207 44 -363 148 -442 294 l-38 72 0 120 c0 139 8
167 112 415 54 127 67 170 74 235 4 44 13 98 20 120 32 112 203 372 277 422
110 73 330 117 436 86 52 -15 108 -63 127 -111 5 -13 13 -20 19 -17 5 3 10 -1
10 -9 0 -8 9 -18 21 -21 15 -5 18 -10 10 -18 -23 -23 -10 -29 14 -7 l26 24 24
-28 c14 -16 25 -25 25 -21 0 4 9 0 20 -10 22 -20 18 -35 -10 -35 -10 0 -20 -8
-22 -17 -4 -20 28 -46 112 -87 30 -15 69 -38 87 -52 17 -13 35 -24 39 -24 12
0 103 -98 97 -104 -4 -3 1 -6 10 -6 10 0 17 -4 17 -8 0 -4 13 -16 30 -25 16
-10 29 -21 28 -25 -3 -9 190 -202 202 -202 6 0 10 -4 10 -10 0 -14 72 -60 83
-53 5 3 -24 38 -64 77 -41 40 -83 83 -94 97 -11 13 25 -19 80 -71 55 -52 127
-119 160 -148 l60 -53 -64 51 c-44 36 -67 48 -74 41 -12 -12 -6 -21 15 -25 7
-1 23 -10 34 -21 44 -43 84 -75 84 -68 0 5 4 4 8 -2 4 -5 32 -26 62 -46 126
-83 257 -167 280 -179 14 -7 27 -16 30 -19 3 -4 34 -29 70 -55 70 -52 107 -86
176 -157 5 -5 38 -37 74 -72 36 -34 90 -91 120 -126 30 -36 74 -82 97 -104 24
-22 43 -46 43 -54 0 -7 5 -13 11 -13 5 0 7 -4 4 -10 -3 -5 5 -12 18 -15 12 -4
39 -26 58 -50 18 -24 40 -44 47 -45 6 0 12 -7 12 -15 0 -8 9 -19 19 -25 11 -5
28 -24 38 -40 10 -17 23 -28 30 -26 7 3 13 2 13 -3 0 -4 9 -18 20 -31 11 -13
20 -20 20 -15 0 4 7 2 15 -5 8 -7 15 -21 15 -31 0 -10 6 -22 13 -26 8 -4 26
-27 42 -50 15 -24 32 -43 36 -43 5 0 9 -9 9 -19 0 -11 5 -23 10 -26 6 -4 8
-11 5 -16 -4 -5 0 -12 8 -15 7 -2 14 -11 14 -19 0 -15 8 -44 39 -145 27 -87
34 -127 45 -260 13 -163 13 -181 -6 -275 -6 -28 -52 -78 -73 -80 -9 -1 -35
-11 -57 -22 -23 -12 -71 -23 -114 -27 -63 -5 -72 -4 -67 9 6 18 2 19 -25 5
-13 -7 -19 -7 -19 0 0 5 -5 10 -11 10 -5 0 -8 -4 -5 -9 5 -8 -30 -25 -47 -22
-8 1 -106 -14 -147 -24 -14 -3 -104 -10 -200 -15 -273 -15 -288 -17 -365 -49
-54 -22 -441 -141 -525 -162 -85 -20 -122 -23 -340 -25 -363 -2 -721 -14 -756
-25 -36 -11 -71 -47 -103 -107 -24 -45 -21 -88 5 -78 8 3 14 1 14 -4 0 -6 7
-10 15 -10 9 0 15 -6 13 -14 -2 -8 6 -22 17 -30 17 -12 19 -18 9 -45 -10 -26
-9 -32 10 -50 13 -12 25 -18 29 -15 7 7 0 -53 -8 -66 -9 -15 7 -90 20 -90 6 0
24 14 38 30 33 37 67 40 67 6 0 -16 -12 -31 -40 -50 -22 -14 -40 -33 -40 -41
0 -12 6 -11 30 6 24 18 32 20 44 10 9 -7 24 -10 36 -6 14 4 28 1 38 -10 43
-42 86 -74 113 -85 29 -12 39 -30 18 -30 -7 0 -9 -9 -6 -23 5 -16 -3 -33 -27
-61 l-33 -40 -34 21 c-19 12 -56 30 -84 41 -56 22 -221 115 -289 161 -53 37
-148 140 -182 198 -32 53 -50 60 -68 25 -8 -15 -32 -47 -54 -72 -21 -25 -43
-56 -47 -70 -4 -14 -17 -38 -29 -55 -46 -62 -85 -141 -90 -182 -6 -52 -48
-135 -81 -161 -34 -27 -32 -36 4 -17 16 8 74 65 129 127 126 142 160 174 197
183 52 12 127 16 139 7 6 -4 29 -10 51 -11 22 -2 58 -12 80 -22 135 -65 177
-109 118 -124 -18 -4 -23 -9 -15 -14 23 -14 22 -49 -1 -55 -12 -3 -18 -8 -14
-12 23 -23 -466 -174 -564 -174 -26 0 -62 -6 -80 -14 -41 -17 -298 -60 -459
-77 -153 -16 -559 -16 -685 0 -106 14 -182 40 -212 73 -13 15 -18 34 -16 76 2
60 -6 59 -29 -3 -11 -29 -16 -83 -16 -195 -2 -195 11 -317 48 -467 17 -65 30
-130 30 -146 0 -36 24 -83 65 -127 17 -19 46 -58 63 -87 17 -28 64 -95 104
-149 40 -53 99 -134 132 -178 32 -45 96 -129 142 -187 94 -120 108 -152 75
-175 -15 -11 -21 -26 -21 -50 0 -32 -15 -51 -154 -197 -221 -231 -321 -360
-461 -595 -65 -109 -225 -431 -225 -452 0 -16 4542 -14 4559 3 11 10 13 10 7
0 -4 -8 -1 -13 8 -13 9 0 16 9 16 20 0 11 3 19 8 19 24 -4 33 3 27 20 -4 12 3
26 20 42 13 13 25 29 25 35 0 7 9 14 20 17 12 3 20 14 20 26 0 13 6 21 16 21
10 0 14 6 11 15 -4 8 -2 17 4 20 5 4 6 11 3 17 -4 7 -2 8 4 4 20 -12 35 4 20
22 -11 13 -10 15 10 10 15 -4 22 -2 22 8 0 8 4 14 10 14 5 0 7 7 4 15 -4 8 -1
15 6 15 14 0 49 40 50 58 0 6 -8 12 -17 13 -15 0 -15 2 2 8 25 10 36 5 28 -14
-3 -8 0 -15 6 -15 6 0 11 5 11 11 0 5 5 7 10 4 6 -3 10 -2 10 4 0 5 -4 13 -10
16 -5 3 -10 14 -10 25 0 13 5 17 19 13 11 -3 28 0 38 7 16 9 15 10 -7 4 -22
-6 -23 -5 -11 9 7 9 17 15 21 12 5 -3 15 4 23 15 7 11 18 17 23 12 5 -4 6 -3
1 2 -4 5 0 18 10 28 20 23 6 24 -19 1 -11 -9 -18 -11 -18 -5 0 7 5 12 10 12 6
0 10 7 10 15 0 9 7 18 15 21 8 4 15 13 15 21 0 8 6 13 13 10 17 -5 42 54 26
64 -8 5 -8 8 0 13 6 4 11 2 11 -5 0 -8 4 -8 16 2 10 8 13 21 9 36 -4 16 -1 23
10 23 8 0 15 8 15 18 0 9 12 25 28 35 27 18 27 18 2 12 -24 -6 -24 -5 3 10 15
9 25 20 22 25 -4 6 0 10 8 10 8 0 18 7 21 16 10 25 7 34 -9 28 -11 -5 -14 -2
-9 12 4 11 11 24 15 30 5 6 7 13 4 15 -2 3 5 5 15 5 11 0 20 -4 20 -9 0 -4 5
-5 11 -1 8 4 7 9 -2 15 -7 4 -10 11 -6 15 4 4 0 15 -9 25 -14 15 -14 17 3 15
13 -1 17 5 15 19 -2 11 -8 22 -13 23 -5 2 -8 13 -8 25 1 18 2 19 6 4 5 -21 28
-18 29 4 0 8 4 22 9 33 5 12 3 21 -5 26 -10 6 -8 9 6 13 18 4 18 5 0 6 -20 1
-20 1 0 16 16 13 16 14 2 9 -26 -9 -22 5 5 16 18 7 19 9 4 9 -13 1 -17 6 -13
21 3 11 9 29 12 40 3 11 1 20 -4 20 -5 0 -12 12 -15 26 -3 18 -1 24 9 20 11
-4 11 -1 1 16 -9 16 -9 22 1 25 6 3 9 10 5 16 -12 19 -11 61 1 69 8 6 8 10 0
15 -6 5 -10 20 -10 35 1 16 -2 28 -7 28 -5 0 -7 7 -4 15 4 8 2 17 -3 20 -5 3
-6 13 -3 22 4 10 2 14 -5 9 -6 -3 -13 -2 -17 4 -3 5 -2 10 3 10 5 0 9 14 9 30
0 17 -4 30 -9 30 -4 0 -8 9 -8 21 0 11 -4 17 -10 14 -7 -4 -7 2 0 19 7 20 6
24 -5 19 -10 -3 -15 2 -17 18 0 13 -2 31 -2 39 -1 8 4 17 11 20 10 4 5 16 -16
40 -22 27 -27 39 -19 53 6 12 6 23 -3 33 -9 11 -8 14 4 14 12 0 10 6 -9 27
-14 15 -23 35 -21 44 3 12 -1 15 -17 12 -15 -4 -17 -2 -7 5 16 12 6 93 -12 89
-8 -1 -11 11 -10 35 2 21 -2 38 -7 38 -6 0 -9 6 -8 13 2 6 -3 11 -9 9 -7 -1
-13 2 -13 7 0 5 6 12 13 14 8 4 9 8 1 14 -6 4 -10 18 -9 30 2 25 -28 59 -43
49 -5 -3 -7 6 -4 19 3 17 -2 31 -16 42 -11 10 -28 45 -38 78 -10 33 -24 64
-31 68 -7 4 -13 13 -13 19 0 6 -8 17 -17 24 -17 13 -17 13 0 14 9 0 17 5 17
11 0 5 -4 8 -9 5 -5 -3 -12 1 -15 10 -3 8 -2 12 3 9 5 -3 12 -1 16 5 3 5 -1
10 -9 10 -19 0 -22 20 -3 20 6 0 4 5 -6 11 -12 7 -15 17 -11 34 3 14 1 39 -5
56 -8 24 -8 36 2 47 10 13 9 15 -5 9 -16 -5 -18 0 -19 41 -1 26 -1 52 0 59 1
6 -3 14 -9 18 -12 8 -13 45 -1 45 12 0 8 39 -7 67 -9 16 -9 23 1 26 9 4 9 6 0
6 -9 1 -10 8 -3 26 6 16 6 25 0 25 -6 0 -10 14 -10 30 0 17 5 30 13 30 9 0 9
2 -1 9 -8 4 -12 17 -11 27 2 11 0 25 -4 32 -5 8 -2 12 10 13 10 0 13 3 6 6
-18 7 -16 23 2 23 9 0 12 6 9 15 -4 8 -10 12 -15 9 -11 -6 -11 -6 0 34 6 20 6
30 0 27 -5 -4 -9 11 -9 33 0 28 7 47 25 66 20 22 22 28 9 33 -12 4 -11 8 6 20
16 11 20 23 17 40 -3 16 2 31 17 44 15 14 16 18 4 14 -11 -4 -18 0 -23 14 -7
23 2 44 15 36 4 -3 16 8 25 23 10 15 12 21 4 15 -20 -19 -31 -16 -20 6 6 10 8
21 5 23 -13 13 -12 48 2 48 9 0 14 10 14 29 0 16 6 32 13 35 9 5 9 7 -1 12
-10 5 -7 9 9 18 31 15 34 32 7 40 -22 7 -22 8 8 19 17 7 29 18 27 25 -3 7 3
12 14 12 21 0 48 36 33 45 -6 3 -10 -1 -10 -9 0 -9 -4 -16 -8 -16 -15 0 -9 29
7 35 14 6 13 8 -3 21 -19 14 -19 14 1 14 29 0 51 28 29 36 -9 3 -13 10 -10 15
3 5 10 6 16 3 15 -9 56 15 61 37 3 13 11 17 21 13 13 -5 16 1 16 26 0 26 3 31
16 26 10 -4 26 3 42 19 18 19 21 25 9 25 -10 0 -15 8 -14 23 1 23 19 47 35 47
5 0 7 11 5 24 -3 13 0 27 6 30 12 8 13 87 2 126 -4 14 -3 33 3 44 8 14 8 20
-1 23 -7 3 -13 9 -13 15 0 6 7 8 15 5 8 -4 17 -2 20 3 4 6 1 10 -4 10 -15 0
-14 27 2 34 8 4 7 5 -3 5 -34 -3 -51 2 -45 11 3 5 12 7 20 3 11 -3 14 1 13 13
-4 28 16 29 24 2 5 -20 6 -18 7 10 1 17 -3 32 -9 32 -5 0 -9 6 -7 13 1 7 -8
12 -20 11 -13 0 -23 5 -23 12 0 8 6 12 13 10 6 -3 24 -7 40 -10 34 -8 36 11 2
20 -16 4 -25 12 -23 23 1 9 -1 22 -5 28 -9 14 8 53 23 53 5 0 8 -18 5 -40 -2
-22 1 -40 6 -40 5 0 6 12 3 26 -5 19 -4 25 5 20 15 -10 14 -1 -5 35 -8 17 -13
33 -10 37 3 3 6 0 6 -6 0 -7 4 -12 9 -12 6 0 9 9 8 20 -1 11 -7 18 -13 16 -7
-3 -12 6 -11 21 0 16 2 21 7 13 4 -7 15 -10 25 -7 19 8 11 27 -11 27 -21 0
-17 27 6 33 12 3 20 14 20 26 0 13 7 21 18 21 16 1 16 1 0 14 -21 16 -23 32
-5 40 6 4 2 4 -10 2 -12 -2 -30 3 -40 11 -10 8 -12 12 -6 8 7 -3 22 -1 34 6
18 9 19 13 8 21 -10 7 -4 8 19 4 40 -7 43 10 2 19 -29 6 -42 25 -17 25 6 1 2
9 -10 19 -17 14 -19 21 -10 31 10 10 8 12 -8 6 -15 -4 -14 -1 7 17 27 22 27
23 8 35 -26 16 -31 15 -23 -5 4 -11 3 -14 -5 -9 -17 10 -15 34 5 44 14 9 14
11 -6 21 -16 9 -21 20 -19 39 2 15 9 26 16 25 15 -4 16 13 1 23 -7 4 -16 -1
-21 -10 -9 -16 -11 -16 -28 -1 -20 18 -16 55 7 55 8 0 11 4 8 10 -4 6 -15 4
-30 -6 -15 -10 -25 -12 -30 -5 -3 6 2 11 12 12 10 0 13 3 6 6 -7 2 -13 9 -13
14 0 4 6 6 14 3 17 -6 29 58 13 68 -8 4 -5 9 6 14 9 3 17 11 17 17 0 7 -4 7
-12 -1 -7 -7 -26 -12 -42 -12 -30 0 -30 0 -8 16 26 18 30 36 5 27 -12 -5 -15
-2 -10 10 5 14 3 16 -11 9 -9 -4 -33 -5 -52 -1 l-35 6 38 2 c36 1 49 14 25 25
-9 3 -6 11 10 25 22 19 22 20 2 26 -11 3 -20 11 -20 16 0 13 24 11 38 -3 7 -7
12 -8 12 -2 0 6 -11 16 -25 22 -28 13 -34 32 -9 32 8 0 13 4 9 10 -11 17 -35
-2 -36 -29 -1 -25 -2 -25 -8 4 l-7 30 -9 -30 -8 -30 -6 29 c-11 53 -28 41 -21
-14 4 -27 3 -50 -1 -50 -4 0 -10 24 -13 53 -9 84 -10 85 -24 80 -9 -4 -10 -9
-3 -16 17 -17 13 -24 -11 -23 -13 1 -26 8 -29 16 -6 16 13 59 33 71 7 4 9 11
5 16 -5 4 -11 3 -15 -3 -11 -18 -70 -23 -77 -7 -2 8 0 11 5 8 6 -3 10 -2 10 4
0 5 -4 13 -10 16 -5 3 -10 16 -10 28 0 16 3 18 9 8 6 -9 11 -10 15 -2 4 6 3
11 -1 11 -5 0 -13 10 -18 23 -6 12 -17 23 -25 23 -8 1 -23 2 -32 3 -10 0 -18
6 -18 12 0 6 7 8 16 5 9 -4 22 -2 29 4 9 8 15 8 20 0 3 -5 15 -10 25 -10 10 0
20 -6 23 -12 3 -7 5 -4 4 8 -1 15 -6 20 -18 17 -11 -3 -22 5 -31 24 -12 24
-19 28 -53 26 -31 -2 -36 0 -25 8 12 8 8 9 -15 5 l-30 -5 30 14 c26 12 27 14
8 15 -12 0 -28 -6 -35 -13 -18 -20 -78 -1 -78 25 0 5 7 2 16 -6 20 -21 50 -20
58 0 9 23 7 31 -3 15 -7 -11 -11 -9 -20 8 -10 19 -9 21 10 18 13 -2 26 -12 31
-23 8 -19 2 32 -8 69 -4 11 0 17 12 17 10 0 15 2 13 5 -3 2 -22 2 -43 -2 -33
-5 -37 -8 -32 -29 7 -28 -10 -33 -18 -6 -4 10 -17 19 -33 20 -32 3 -44 12 -15
12 11 0 24 5 27 10 4 6 -7 10 -27 10 -32 0 -33 1 -35 47 -1 26 2 50 7 53 4 3
2 10 -5 16 -9 9 -12 4 -13 -22 -1 -19 -6 -42 -11 -52 -7 -12 -9 -1 -6 38 4 47
3 51 -7 30 -6 -14 -10 -33 -9 -44 2 -12 -2 -16 -9 -11 -6 4 -10 16 -7 26 3 10
1 22 -4 25 -5 3 -9 1 -9 -5 0 -5 -8 -8 -17 -6 -10 2 -25 4 -33 5 -10 1 -9 4 5
10 17 7 17 9 3 9 -10 1 -18 8 -18 16 0 8 -9 15 -19 15 -10 0 -21 7 -25 15 -3
9 -12 12 -23 9 -17 -5 -17 -5 0 6 21 14 22 30 2 30 -17 0 -20 32 -5 59 7 14 4
20 -14 29 -13 6 -25 19 -28 30 -4 15 -1 18 18 14 14 -2 24 0 24 7 0 6 -7 11
-15 11 -18 0 -20 17 -3 22 6 2 8 10 4 17 -6 9 -11 8 -22 -6 -7 -10 -14 -13
-14 -6 0 6 6 18 13 25 16 17 17 57 1 51 -15 -6 -28 13 -14 22 5 3 10 14 10 23
0 14 -2 13 -13 -2 -10 -13 -20 -16 -37 -11 -16 5 -19 10 -10 15 9 6 9 9 0 15
-8 5 -7 12 6 26 19 21 34 25 34 9 0 -5 -7 -10 -16 -10 -14 0 -14 -2 -3 -16 12
-14 14 -14 21 5 4 12 17 21 30 22 21 1 21 2 -4 12 -30 12 -40 40 -10 31 13 -5
14 -4 3 4 -8 6 -11 18 -6 31 5 16 1 23 -16 29 -17 7 -19 11 -9 17 16 10 -46
38 -64 28 -8 -4 -8 -2 1 7 14 15 55 7 76 -15 13 -12 14 -10 12 18 -2 18 -3 42
-4 54 -1 19 -4 21 -31 13 -20 -6 -32 -5 -37 3 -4 7 -12 0 -20 -18 -13 -28 -13
-28 -9 -4 4 20 -2 32 -28 55 -18 16 -35 36 -39 44 -4 10 -6 8 -6 -7 -1 -12 5
-23 12 -26 9 -4 9 -7 0 -17 -15 -16 -63 -23 -63 -9 0 5 8 9 18 9 11 1 7 6 -13
15 l-30 15 27 -4 c25 -3 27 -1 22 20 -5 19 -2 24 12 25 11 0 14 3 7 5 -7 3 -9
12 -6 20 3 9 -1 14 -12 14 -9 0 -13 5 -10 10 4 7 13 6 27 -1 19 -10 20 -9 16
9 -3 12 -1 23 6 26 6 2 1 5 -12 5 -13 1 -20 -3 -17 -9 3 -5 1 -10 -4 -10 -15
0 -14 13 2 29 10 10 7 11 -14 6 -17 -4 -30 -2 -34 5 -5 9 -1 10 14 5 12 -3 21
-2 21 4 0 5 -8 12 -17 14 -10 2 -2 2 17 0 l35 -4 -28 24 c-15 14 -27 29 -26
33 6 33 -3 44 -32 44 -26 0 -29 3 -20 14 15 18 -11 30 -28 13 -8 -8 -11 -6
-11 7 0 11 8 25 18 32 15 12 15 13 1 14 -9 0 -22 6 -29 14 -6 8 -18 12 -26 9
-10 -4 -12 0 -8 11 4 12 2 15 -9 10 -17 -6 -33 28 -21 48 4 7 4 10 -1 6 -4 -4
-14 -3 -20 2 -14 12 -45 3 -45 -13 0 -7 4 -7 12 1 17 17 23 15 37 -14 8 -19 9
-30 1 -39 -13 -16 -59 -25 -66 -14 -3 5 2 9 10 9 18 0 20 8 6 30 -8 12 -10 12
-16 -3 -3 -9 -10 -14 -15 -11 -5 3 -4 14 2 26 8 15 8 23 -1 32 -8 8 -10 7 -6
-4 7 -20 -15 -47 -39 -47 -11 0 -29 8 -40 17 -11 10 -29 21 -40 24 -11 3 -5 4
13 2 21 -2 36 2 39 11 7 18 23 17 23 -2 0 -8 -4 -15 -10 -15 -5 0 -10 -5 -10
-11 0 -8 4 -8 14 0 8 7 16 8 18 4 3 -4 3 -2 2 5 -2 6 1 12 7 12 5 0 2 11 -7
26 -9 14 -23 23 -30 20 -17 -6 -18 8 -3 32 7 12 7 25 0 43 -7 21 -15 25 -33
22 -31 -6 -70 33 -48 47 13 8 12 10 -2 10 -10 0 -18 5 -18 10 0 6 3 9 8 9 25
-4 51 3 55 16 5 11 1 12 -19 4 -34 -12 -94 -5 -105 12 -5 8 -9 10 -9 5 0 -5
-7 -3 -15 4 -9 7 -15 8 -15 2 0 -5 7 -13 16 -16 8 -3 12 -10 9 -16 -3 -5 0
-10 7 -10 10 0 10 -2 1 -8 -7 -4 -11 -18 -8 -30 2 -12 0 -24 -5 -27 -9 -5 -24
51 -19 70 1 6 0 17 -4 25 -14 39 -15 60 0 60 8 0 11 5 8 10 -4 6 -10 8 -15 5
-13 -8 -43 42 -37 60 4 8 2 17 -3 20 -16 10 -12 35 5 35 8 0 15 -6 15 -14 0
-13 20 -26 39 -26 4 0 13 11 19 25 9 20 9 25 -3 25 -9 0 -12 -6 -9 -15 4 -9 0
-15 -9 -15 -9 0 -14 10 -14 25 0 31 -11 44 -22 27 -5 -9 -13 -6 -27 10 -19 22
-22 64 -4 53 5 -3 7 -13 4 -23 -5 -13 -4 -14 4 -3 7 9 12 10 16 2 4 -6 2 -11
-3 -11 -6 0 -11 -4 -11 -10 0 -5 7 -7 15 -4 18 7 13 50 -5 46 -8 -2 -10 3 -6
14 5 13 2 15 -14 11 -29 -8 -51 20 -84 105 -16 40 -37 91 -47 112 -11 22 -19
46 -19 53 0 24 -33 79 -38 65 -2 -8 0 -24 5 -35 6 -12 15 -38 22 -57 7 -19 26
-71 43 -115 17 -44 31 -90 32 -102 0 -11 4 -19 9 -16 6 4 11 -20 8 -41 -1 -4
3 -14 9 -21 8 -9 6 -14 -5 -19 -9 -3 -14 -10 -10 -15 3 -6 12 -8 19 -5 8 3 17
1 20 -4 3 -5 -5 -12 -19 -14 -24 -5 -31 6 -26 36 1 5 -7 15 -18 23 -17 11 -19
18 -11 39 12 31 13 55 2 37 -5 -8 -13 -9 -22 -3 -8 5 -21 5 -32 -1 -15 -8 -18
-6 -18 10 0 15 4 19 18 14 16 -7 16 -6 0 11 -20 20 -24 41 -6 30 8 -5 9 -2 5
10 -4 10 -7 23 -8 29 -1 7 -4 1 -8 -13 -4 -15 -15 -26 -29 -28 -20 -3 -22 1
-24 55 -1 32 0 77 1 101 2 23 -1 42 -6 42 -5 0 -7 17 -5 38 2 21 0 32 -5 25
-4 -6 -8 16 -8 50 0 34 -4 75 -9 91 -6 21 -6 27 3 22 6 -4 11 -3 11 3 0 5 -4
11 -9 13 -5 2 -20 44 -32 93 -12 50 -28 110 -35 135 -7 25 -16 81 -19 125 -4
44 -15 123 -26 175 -11 52 -31 155 -45 229 -14 73 -32 152 -40 175 -8 22 -17
50 -19 61 -15 67 -126 295 -200 410 -33 51 -169 170 -226 197 -75 36 -189 65
-287 73 -46 3 -98 13 -117 21 -32 13 -109 17 -147 7z m-1160 -428 c-19 -39
-38 -58 -38 -39 0 15 46 84 56 84 2 0 -6 -20 -18 -45z m7 -204 c-26 -79 -44
-109 -31 -53 10 44 48 143 53 138 3 -2 -8 -41 -22 -85z m22 -53 c-3 -7 -5 -2
-5 12 0 14 2 19 5 13 2 -7 2 -19 0 -25z m-10 -40 c-3 -8 -6 -5 -6 6 -1 11 2
17 5 13 3 -3 4 -12 1 -19z m-81 -80 c-9 -68 -27 -140 -34 -134 -4 4 8 86 24
164 9 44 16 21 10 -30z m-39 -40 c-3 -8 -6 -5 -6 6 -1 11 2 17 5 13 3 -3 4
-12 1 -19z m-13 -67 c-4 -23 -9 -40 -11 -37 -3 3 -2 23 2 46 4 23 9 39 11 37
3 -2 2 -23 -2 -46z m63 27 c-3 -8 -6 -5 -6 6 -1 11 2 17 5 13 3 -3 4 -12 1
-19z m-17 -94 c-29 -172 -30 -175 -24 -89 5 77 21 161 29 153 3 -2 0 -31 -5
-64z m-63 -46 c-2 -13 -4 -3 -4 22 0 25 2 35 4 23 2 -13 2 -33 0 -45z m21
-100 c3 -111 -5 -127 -14 -30 -5 52 1 132 10 132 1 0 3 -46 4 -102z m791 62
c0 -10 -3 -8 -9 5 -12 27 -12 43 0 25 5 -8 9 -22 9 -30z m-429 -51 c0 -57 -1
-59 -20 -49 -15 8 -19 17 -15 31 5 14 3 17 -9 13 -25 -10 -20 42 6 60 31 22
38 12 38 -55z m-303 -126 c-3 -10 -5 -2 -5 17 0 19 2 27 5 18 2 -10 2 -26 0
-35z m-40 -5 c-3 -8 -6 -5 -6 6 -1 11 2 17 5 13 3 -3 4 -12 1 -19z m410 1 c8
-8 7 -19 -4 -40 -8 -16 -16 -29 -19 -29 -2 0 -4 18 -4 40 0 41 7 49 27 29z
m-412 -76 c7 -61 -10 -28 -18 37 -4 31 -3 40 4 28 5 -9 12 -38 14 -65z m375 7
c0 -5 -5 -10 -11 -10 -5 0 -7 5 -4 10 3 6 8 10 11 10 2 0 4 -4 4 -10z m233
-618 c5 -119 -19 -321 -42 -344 -8 -9 1 75 19 182 8 50 11 129 8 235 -4 112
-3 139 3 90 5 -38 10 -112 12 -163z m34 196 c-3 -8 -6 -5 -6 6 -1 11 2 17 5
13 3 -3 4 -12 1 -19z m1250 -50 c-3 -8 -6 -5 -6 6 -1 11 2 17 5 13 3 -3 4 -12
1 -19z m-1240 -35 c-3 -10 -5 -2 -5 17 0 19 2 27 5 18 2 -10 2 -26 0 -35z m0
-126 c-12 -27 -14 -19 -8 38 5 49 5 49 11 15 3 -19 2 -43 -3 -53z m54 17 c5
-15 12 -43 15 -63 8 -47 14 -53 14 -12 0 19 4 30 10 26 6 -4 10 -66 10 -154
l0 -149 -35 -38 c-19 -22 -35 -42 -35 -46 0 -5 -9 -8 -20 -8 -11 0 -25 -9 -32
-20 -19 -30 -41 -26 -34 8 3 15 15 85 26 156 11 71 23 133 27 139 3 6 1 7 -5
3 -9 -5 -12 10 -12 53 0 39 4 61 11 61 16 0 38 31 39 53 0 25 9 21 21 -9z m76
-156 c-2 -13 -4 -5 -4 17 -1 22 1 32 4 23 2 -10 2 -28 0 -40z m1723 -72 c0 -3
-4 -8 -10 -11 -5 -3 -10 -1 -10 4 0 6 5 11 10 11 6 0 10 -2 10 -4z m-1703 -28
c-3 -8 -6 -5 -6 6 -1 11 2 17 5 13 3 -3 4 -12 1 -19z m1711 -54 c-1 -28 -4
-40 -9 -32 -12 18 -11 91 0 84 5 -4 9 -27 9 -52z m68 19 c-10 -10 -46 -11 -40
-1 3 4 15 8 26 8 12 0 18 -3 14 -7z m-1049 -115 c-3 -7 -5 -2 -5 12 0 14 2 19
5 13 2 -7 2 -19 0 -25z m-80 0 c-3 -8 -6 -5 -6 6 -1 11 2 17 5 13 3 -3 4 -12
1 -19z m-527 -95 c-11 -17 -11 -17 -6 0 3 10 7 40 8 65 l2 47 3 -47 c2 -26 -1
-56 -7 -65z m-147 40 c5 -26 4 -26 -9 -8 -16 22 -18 35 -5 35 5 0 11 -12 14
-27z m1897 -11 c0 -15 -2 -15 -10 -2 -13 20 -13 33 0 25 6 -3 10 -14 10 -23z
m-104 -19 c-11 -11 -17 4 -9 23 7 18 8 18 11 1 2 -10 1 -21 -2 -24z m133 -33
c0 -23 -1 -23 -9 -5 -5 11 -9 29 -9 40 -1 17 1 17 9 5 5 -8 9 -26 9 -40z
m-1032 18 c-3 -8 -6 -5 -6 6 -1 11 2 17 5 13 3 -3 4 -12 1 -19z m-917 -8 c0
-5 -4 -10 -10 -10 -5 0 -10 5 -10 10 0 6 5 10 10 10 6 0 10 -4 10 -10z m1837
-12 c-3 -8 -6 -5 -6 6 -1 11 2 17 5 13 3 -3 4 -12 1 -19z m-17 -28 c0 -16 -2
-30 -4 -30 -2 0 -6 14 -8 30 -3 17 -1 30 4 30 4 0 8 -13 8 -30z m-2023 -12
c-3 -8 -6 -5 -6 6 -1 11 2 17 5 13 3 -3 4 -12 1 -19z m1930 -10 c-3 -8 -6 -5
-6 6 -1 11 2 17 5 13 3 -3 4 -12 1 -19z m-1954 -25 c-2 -21 -11 -60 -18 -88
-15 -52 -31 -183 -26 -200 2 -5 -3 -64 -10 -129 -14 -131 -23 -127 -35 18 -7
88 12 211 47 313 10 31 19 66 19 78 0 17 16 45 26 45 2 0 0 -17 -3 -37z m2137
21 c11 -12 11 -15 -1 -12 -8 2 -13 -3 -11 -9 1 -7 -4 -13 -12 -13 -11 0 -12 5
-3 25 14 30 12 29 27 9z m-1200 -26 c0 -18 -2 -20 -9 -8 -6 8 -7 18 -5 22 9
14 14 9 14 -14z m1140 12 c0 -5 -5 -10 -11 -10 -5 0 -7 5 -4 10 3 6 8 10 11
10 2 0 4 -4 4 -10z m95 -10 c-3 -5 -11 -10 -16 -10 -6 0 -7 5 -4 10 3 6 11 10
16 10 6 0 7 -4 4 -10z m24 -52 c-1 -24 -3 -27 -6 -10 -2 12 -10 22 -16 22 -7
0 -6 4 3 10 21 13 20 14 19 -22z m140 -15 c1 -7 -6 -13 -14 -13 -8 0 -15 5
-15 11 0 5 5 7 10 4 7 -4 9 3 5 22 -4 23 -4 24 4 8 5 -11 10 -26 10 -32z m-34
27 c3 -5 1 -10 -4 -10 -6 0 -11 5 -11 10 0 6 2 10 4 10 3 0 8 -4 11 -10z
m-1806 -60 c0 -9 -4 -8 -9 5 -5 11 -9 27 -9 35 0 9 4 8 9 -5 5 -11 9 -27 9
-35z m585 1 c-6 -6 -11 1 -18 29 l-7 25 15 -25 c8 -14 12 -27 10 -29z m-95
-14 c0 -21 -1 -21 -9 -2 -12 28 -12 37 0 30 6 -3 10 -16 9 -28z m68 11 c-3 -8
-6 -5 -6 6 -1 11 2 17 5 13 3 -3 4 -12 1 -19z m990 -10 c-3 -8 -6 -5 -6 6 -1
11 2 17 5 13 3 -3 4 -12 1 -19z m-942 -65 c10 -38 22 -71 27 -74 5 -3 10 -14
12 -25 3 -10 7 -27 11 -36 4 -10 3 -18 -2 -18 -13 0 -83 187 -77 205 4 8 7 15
9 15 1 0 10 -30 20 -67z m-1040 -74 c4 -30 13 -76 22 -104 20 -68 28 -334 13
-422 -6 -37 -20 -83 -29 -102 l-18 -35 -16 30 c-16 32 -38 105 -42 144 -1 14
-8 67 -14 119 -6 51 -9 107 -6 125 3 17 10 80 15 139 5 59 15 138 21 175 l12
67 17 -41 c10 -22 21 -65 25 -95z m2262 109 c-3 -8 -6 -5 -6 6 -1 11 2 17 5
13 3 -3 4 -12 1 -19z m-1310 -71 c-2 -6 -11 2 -20 20 -23 43 -21 51 4 19 11
-14 19 -32 16 -39z m138 -35 c-5 -5 -18 26 -29 68 -3 14 3 5 14 -19 11 -24 18
-46 15 -49z m1035 78 c0 -5 -2 -10 -4 -10 -3 0 -8 5 -11 10 -3 6 -1 10 4 10 6
0 11 -4 11 -10z m227 4 c-3 -3 -12 -4 -19 -1 -8 3 -5 6 6 6 11 1 17 -2 13 -5z
m-1806 -104 c34 -42 45 -59 29 -49 -27 17 -109 117 -110 134 0 11 6 4 81 -85z
m642 40 c3 -11 2 -20 -3 -20 -8 0 -20 24 -20 41 0 17 17 1 23 -21z m334 8 c-3
-8 -6 -5 -6 6 -1 11 2 17 5 13 3 -3 4 -12 1 -19z m-749 -33 c-3 -3 -9 2 -12
12 -6 14 -5 15 5 6 7 -7 10 -15 7 -18z m689 3 c-3 -8 -6 -5 -6 6 -1 11 2 17 5
13 3 -3 4 -12 1 -19z m718 13 c3 -5 1 -12 -5 -16 -5 -3 -10 1 -10 9 0 18 6 21
15 7z m-1555 -141 c6 0 8 6 4 13 -4 6 -3 8 1 4 14 -12 15 -38 2 -30 -33 18
-99 78 -128 115 -21 28 -7 17 38 -29 40 -40 77 -73 83 -73z m777 108 c-3 -8
-6 -5 -6 6 -1 11 2 17 5 13 3 -3 4 -12 1 -19z m-272 -76 c-5 -5 -25 43 -25 61
1 7 7 -3 16 -22 8 -19 12 -36 9 -39z m-1088 36 c-3 -8 -6 -5 -6 6 -1 11 2 17
5 13 3 -3 4 -12 1 -19z m2348 -18 c3 -5 1 -10 -4 -10 -6 0 -11 5 -11 10 0 6 2
10 4 10 3 0 8 -4 11 -10z m-1335 -50 c6 -11 8 -20 6 -20 -3 0 -10 9 -16 20 -6
11 -8 20 -6 20 3 0 10 -9 16 -20z m1507 -35 c-24 -24 -29 -18 -10 11 9 15 19
22 21 15 2 -6 -3 -18 -11 -26z m-976 -95 c16 -62 29 -115 29 -119 -1 -21 -21
37 -39 114 -12 50 -24 99 -28 110 -3 11 -2 17 2 13 4 -4 20 -57 36 -118z m796
73 c1 -22 -1 -24 -8 -10 -6 9 -7 22 -4 27 9 14 10 13 12 -17z m64 4 c-13 -13
-26 -3 -16 12 3 6 11 8 17 5 6 -4 6 -10 -1 -17z m69 -7 c-24 -15 -36 -11 -14
4 10 8 21 12 24 10 2 -3 -2 -9 -10 -14z m143 -7 c-7 -2 -19 -2 -25 0 -7 3 -2
5 12 5 14 0 19 -2 13 -5z m-167 -31 c-10 -2 -22 0 -28 6 -6 6 0 7 19 4 21 -5
23 -7 9 -10z m127 1 c-7 -2 -19 -2 -25 0 -7 3 -2 5 12 5 14 0 19 -2 13 -5z
m47 -88 c0 -8 -2 -15 -4 -15 -2 0 -6 7 -10 15 -3 8 -1 15 4 15 6 0 10 -7 10
-15z m30 -60 c-7 -9 -15 -13 -17 -11 -7 7 7 26 19 26 6 0 6 -6 -2 -15z m20
-36 c-7 -11 -14 -18 -17 -15 -8 8 5 36 17 36 7 0 7 -6 0 -21z m-40 -9 c-24
-15 -37 -11 -16 5 11 8 22 12 25 9 3 -3 -1 -9 -9 -14z m-64 -26 c-3 -9 -6 -20
-6 -25 0 -5 -10 -9 -22 -9 l-23 0 24 19 c23 18 23 19 5 24 -16 4 -15 5 5 6 17
1 22 -3 17 -15z m204 -64 c0 -11 -4 -20 -10 -20 -5 0 -10 9 -10 20 0 11 5 20
10 20 6 0 10 -9 10 -20z m50 -24 c0 -3 -4 -8 -10 -11 -5 -3 -10 -1 -10 4 0 6
5 11 10 11 6 0 10 -2 10 -4z m47 -10 c-3 -8 -1 -17 6 -20 7 -3 1 -3 -13 0 -33
9 -37 13 -20 24 22 14 33 12 27 -4z m-97 -5 c0 -5 -6 -12 -12 -15 -7 -3 -2 -3
12 0 24 6 24 6 7 -12 -15 -17 -19 -17 -27 -4 -9 13 -11 13 -20 0 -5 -8 -10
-11 -10 -6 0 11 32 45 43 45 4 1 7 -3 7 -8z m-100 -11 c8 -5 11 -10 5 -10 -5
0 -17 5 -25 10 -8 5 -10 10 -5 10 6 0 17 -5 25 -10z m152 -58 c-12 -2 -20 -7
-18 -11 3 -4 1 -13 -5 -21 -6 -10 -9 -11 -9 -2 0 6 -9 12 -19 12 -11 0 -23 5
-27 11 -4 8 0 9 15 4 12 -4 29 0 43 9 11 8 26 12 32 8 6 -4 1 -8 -12 -10z m38
-44 c0 -19 -2 -20 -10 -8 -13 19 -13 30 0 30 6 0 10 -10 10 -22z m-153 -20
c-3 -7 -5 -2 -5 12 0 14 2 19 5 13 2 -7 2 -19 0 -25z m93 -25 c-11 -17 -11
-17 -6 0 3 10 6 24 7 30 0 9 2 9 5 0 3 -7 0 -20 -6 -30z m30 -13 c0 -5 -4 -10
-10 -10 -5 0 -10 5 -10 10 0 6 5 10 10 10 6 0 10 -4 10 -10z m-73 -6 c-3 -3
-12 -4 -19 -1 -8 3 -5 6 6 6 11 1 17 -2 13 -5z m18 -35 c16 -7 14 -8 -9 -4
-25 5 -28 4 -17 -8 8 -10 9 -17 1 -22 -5 -3 -10 1 -10 9 0 9 -6 16 -12 16 -9
0 -8 4 2 10 18 11 19 11 45 -1z m29 -24 c-4 -8 -11 -15 -16 -15 -6 0 -5 6 2
15 7 8 14 15 16 15 2 0 1 -7 -2 -15z m-1152 -130 c6 -11 9 -18 6 -15 -2 3 -31
34 -63 70 l-59 65 53 -50 c29 -27 57 -59 63 -70z m1168 99 c0 -6 -26 -34 -32
-34 -2 0 -4 9 -4 20 0 13 7 20 18 20 10 0 18 -3 18 -6z m14 -28 c-3 -9 -10
-16 -15 -16 -5 0 -4 9 3 20 14 22 21 20 12 -4z m-84 -41 c0 -8 -4 -15 -9 -15
-5 0 -11 7 -15 15 -3 9 0 15 9 15 8 0 15 -7 15 -15z m-26 -81 c3 -8 2 -12 -4
-9 -6 3 -10 10 -10 16 0 14 7 11 14 -7z m31 -54 c3 -5 1 -10 -4 -10 -6 0 -11
5 -11 10 0 6 2 10 4 10 3 0 8 -4 11 -10z m142 -42 c-3 -8 -6 -5 -6 6 -1 11 2
17 5 13 3 -3 4 -12 1 -19z m93 -112 c0 -2 -9 -6 -20 -9 -11 -3 -18 -1 -14 4 5
9 34 13 34 5z m10 -31 c7 -9 11 -18 8 -20 -9 -10 -38 7 -38 21 0 18 14 18 30
-1z m56 -41 c-5 -17 -2 -26 9 -30 8 -3 12 -11 9 -16 -4 -6 -11 -3 -18 8 -13
24 -17 76 -4 68 5 -4 7 -17 4 -30z m65 -95 c-5 -13 -10 -19 -10 -12 -1 15 10
45 15 40 3 -2 0 -15 -5 -28z m143 5 c8 -3 12 -12 9 -20 -4 -11 -9 -12 -19 -3
-8 6 -14 15 -14 20 0 11 3 11 24 3z m-120 -29 c-4 -8 -8 -15 -10 -15 -2 0 -4
7 -4 15 0 8 4 15 10 15 5 0 7 -7 4 -15z m106 -55 c0 -17 -15 -11 -28 11 -12
19 -11 19 8 9 11 -6 20 -15 20 -20z m-15 -60 c3 -5 1 -10 -4 -10 -6 0 -11 5
-11 10 0 6 2 10 4 10 3 0 8 -4 11 -10z m136 -6 c10 -13 10 -17 -1 -24 -8 -5
-19 -5 -25 -1 -5 5 -19 11 -30 14 -18 4 -18 5 3 6 12 0 22 6 22 11 0 15 16 12
31 -6z m-69 -43 c-15 -13 -18 -21 -10 -24 8 -3 6 -6 -4 -6 -25 -1 -22 22 5 35
33 17 35 16 9 -5z m-222 -26 c7 -8 9 -15 6 -15 -4 0 -14 7 -22 15 -9 8 -11 15
-6 15 5 0 15 -7 22 -15z m320 -15 c0 -5 -7 -10 -15 -10 -8 0 -15 5 -15 10 0 6
7 10 15 10 8 0 15 -4 15 -10z m-70 -20 c0 -5 -2 -10 -4 -10 -3 0 -8 5 -11 10
-3 6 -1 10 4 10 6 0 11 -4 11 -10z m55 -63 c-2 -23 0 -46 6 -53 6 -8 5 -13 -5
-17 -11 -4 -13 -1 -9 10 5 13 3 14 -16 4 -12 -7 -26 -9 -31 -6 -13 8 -13 35 0
35 5 0 7 -7 4 -15 -4 -8 -1 -15 4 -15 12 0 25 18 28 36 1 6 5 22 8 35 6 22 6
22 -7 7 -8 -10 -17 -15 -20 -11 -12 11 -7 23 9 23 11 0 14 5 10 16 -5 14 -4
15 8 5 10 -9 14 -26 11 -54z m75 -37 c0 -6 -7 -13 -15 -16 -8 -4 -12 -11 -8
-17 4 -6 1 -7 -7 -2 -10 6 -12 3 -7 -14 4 -18 3 -20 -9 -11 -11 10 -11 17 -2
34 17 32 48 49 48 26z m60 -90 c0 -5 -5 -10 -11 -10 -5 0 -7 5 -4 10 3 6 8 10
11 10 2 0 4 -4 4 -10z m80 -70 c0 -5 -2 -10 -4 -10 -3 0 -8 5 -11 10 -3 6 -1
10 4 10 6 0 11 -4 11 -10z m0 -30 c0 -5 -20 -10 -45 -10 -25 0 -45 5 -45 10 0
6 20 10 45 10 25 0 45 -4 45 -10z m-80 -40 c0 -5 -5 -10 -11 -10 -5 0 -7 5 -4
10 3 6 8 10 11 10 2 0 4 -4 4 -10z m175 -240 c3 -5 1 -18 -5 -27 -10 -16 -11
-15 -6 5 3 18 1 22 -10 18 -9 -3 -12 -1 -9 4 8 13 22 13 30 0z m55 -150 c0 -5
-5 -10 -11 -10 -5 0 -7 5 -4 10 3 6 8 10 11 10 2 0 4 -4 4 -10z m-402 -118 c2
-7 -2 -10 -12 -6 -9 3 -16 11 -16 16 0 13 23 5 28 -10z m415 3 c-3 -9 -8 -14
-10 -11 -3 3 -2 9 2 15 9 16 15 13 8 -4z m-380 -36 c4 -16 3 -18 -9 -8 -7 6
-11 15 -8 20 8 13 11 11 17 -12z m57 -69 c19 -27 20 -30 4 -30 -10 0 -14 3
-11 7 4 3 -2 12 -13 20 -11 8 -20 18 -20 24 0 18 19 8 40 -21z m58 -84 c11
-18 23 -44 27 -57 7 -23 7 -23 -8 -4 -8 11 -13 23 -11 27 3 5 1 8 -4 8 -5 0
-12 8 -16 18 -3 9 -9 23 -12 30 -12 26 5 11 24 -22z m88 -202 c20 -79 12 -77
-16 4 -34 97 -34 99 -16 75 10 -13 24 -48 32 -79z m124 -84 c0 -5 -4 -10 -10
-10 -5 0 -10 5 -10 10 0 6 5 10 10 10 6 0 10 -4 10 -10z m-91 -50 c1 -13 0
-13 -9 0 -5 8 -9 24 -9 35 l0 20 9 -20 c5 -11 9 -27 9 -35z m-2 -272 c-3 -8
-6 -5 -6 6 -1 11 2 17 5 13 3 -3 4 -12 1 -19z m-7 -48 c-18 -11 -22 -7 -14 14
5 13 10 14 18 6 8 -8 7 -13 -4 -20z m-2430 -770 c0 -5 -5 -12 -12 -16 -7 -5
-8 -3 -3 6 6 10 4 12 -8 7 -11 -4 -14 -2 -11 8 6 14 34 10 34 -5z m-15 -80 c8
-13 -5 -13 -25 0 -13 8 -13 10 2 10 9 0 20 -4 23 -10z m-134 -113 c21 -19 35
-57 22 -57 -9 0 -48 23 -65 38 -14 11 -15 18 -7 29 16 18 22 17 50 -10z m151
-299 c-6 -6 -7 0 -4 19 5 21 7 23 10 9 2 -10 0 -22 -6 -28z m2458 -2268 c0 -5
-4 -10 -10 -10 -5 0 -10 5 -10 10 0 6 5 10 10 10 6 0 10 -4 10 -10z m-170
-244 c0 -3 -4 -8 -10 -11 -5 -3 -10 -1 -10 4 0 6 5 11 10 11 6 0 10 -2 10 -4z
m-183 -208 c-3 -8 -6 -5 -6 6 -1 11 2 17 5 13 3 -3 4 -12 1 -19z m13 -42 c0
-3 -4 -8 -10 -11 -5 -3 -10 -1 -10 4 0 6 5 11 10 11 6 0 10 -2 10 -4z"/>
<path d="M5622 8470 c0 -14 2 -19 5 -12 2 6 2 18 0 25 -3 6 -5 1 -5 -13z"/>
<path d="M5361 9074 c0 -11 3 -14 6 -6 3 7 2 16 -1 19 -3 4 -6 -2 -5 -13z"/>
<path d="M7351 9064 c0 -11 3 -14 6 -6 3 7 2 16 -1 19 -3 4 -6 -2 -5 -13z"/>
<path d="M5377 9010 c3 -11 9 -22 13 -25 5 -3 6 4 3 15 -3 11 -9 22 -13 25 -5
3 -6 -4 -3 -15z"/>
<path d="M4955 8761 c-17 -3 -30 -13 -30 -21 0 -12 16 -15 73 -16 39 0 72 1
72 3 0 7 -65 43 -75 42 -5 -1 -23 -4 -40 -8z"/>
<path d="M5025 8450 c-11 -18 25 -28 120 -34 62 -4 106 -3 115 4 11 7 0 10
-42 10 -31 0 -68 4 -82 9 -35 14 -105 21 -111 11z"/>
<path d="M7530 8310 c6 -11 13 -20 16 -20 2 0 0 9 -6 20 -6 11 -13 20 -16 20
-2 0 0 -9 6 -20z"/>
<path d="M7835 8169 c-4 -6 -5 -12 -2 -15 2 -3 7 2 10 11 7 17 1 20 -8 4z"/>
<path d="M7770 8111 c0 -5 7 -11 14 -14 10 -4 13 -1 9 9 -6 15 -23 19 -23 5z"/>
<path d="M7710 8074 c0 -8 5 -12 10 -9 6 4 8 11 5 16 -9 14 -15 11 -15 -7z"/>
<path d="M7996 8002 c-3 -4 4 -9 15 -9 23 -2 25 3 4 10 -8 4 -16 3 -19 -1z"/>
<path d="M5570 7970 c-9 -6 -10 -10 -3 -10 6 0 15 5 18 10 8 12 4 12 -15 0z"/>
<path d="M7875 7970 c-3 -6 1 -7 9 -4 18 7 21 14 7 14 -6 0 -13 -4 -16 -10z"/>
<path d="M7923 7941 c0 -11 5 -18 9 -15 4 3 5 11 1 19 -7 21 -12 19 -10 -4z"/>
<path d="M5340 7893 c0 -13 5 -23 10 -23 13 0 13 11 0 30 -8 12 -10 11 -10 -7z"/>
<path d="M5821 7865 c0 -5 6 -21 14 -35 8 -14 14 -20 14 -15 0 6 -6 21 -14 35
-8 14 -14 21 -14 15z"/>
<path d="M5871 7813 c0 -11 3 -13 6 -5 2 6 10 9 15 6 7 -4 8 -2 4 4 -11 18
-26 14 -25 -5z"/>
<path d="M5350 7804 c0 -10 5 -26 10 -34 8 -11 9 -7 4 15 -8 37 -14 45 -14 19z"/>
<path d="M8140 7776 c0 -2 7 -7 16 -10 8 -3 12 -2 9 4 -6 10 -25 14 -25 6z"/>
<path d="M5925 7740 c9 -16 18 -30 21 -30 2 0 -2 14 -11 30 -9 17 -18 30 -21
30 -2 0 2 -13 11 -30z"/>
<path d="M8195 7660 c3 -5 10 -10 16 -10 5 0 9 5 9 10 0 6 -7 10 -16 10 -8 0
-12 -4 -9 -10z"/>
<path d="M8310 7621 c0 -6 4 -13 10 -16 6 -3 7 1 4 9 -7 18 -14 21 -14 7z"/>
<path d="M8216 7594 c-4 -9 -3 -21 2 -26 12 -12 23 15 12 31 -5 9 -9 8 -14 -5z"/>
<path d="M8285 7560 c3 -5 8 -10 11 -10 2 0 4 5 4 10 0 6 -5 10 -11 10 -5 0
-7 -4 -4 -10z"/>
<path d="M5751 7444 c0 -11 3 -14 6 -6 3 7 2 16 -1 19 -3 4 -6 -2 -5 -13z"/>
<path d="M8475 7310 c3 -5 8 -10 11 -10 2 0 4 5 4 10 0 6 -5 10 -11 10 -5 0
-7 -4 -4 -10z"/>
<path d="M6550 7302 c0 -5 -12 -8 -27 -8 -41 1 -38 -16 7 -42 l39 -23 15 30
c9 16 13 32 8 34 -20 11 -42 16 -42 9z"/>
<path d="M6582 7229 c-7 -10 -8 -19 -3 -19 13 0 33 28 23 33 -4 3 -13 -3 -20
-14z"/>
<path d="M8397 7223 c-10 -10 -8 -25 2 -19 5 4 21 2 35 -4 16 -6 27 -6 31 0 4
6 -5 10 -19 10 -14 0 -26 5 -26 10 0 11 -13 13 -23 3z"/>
<path d="M8495 7181 c-10 -17 15 -23 31 -7 14 15 14 16 -5 16 -11 0 -22 -4
-26 -9z"/>
<path d="M8545 7160 c-3 -5 -1 -10 6 -10 6 0 9 -8 6 -20 -3 -12 -1 -18 5 -14
5 3 8 15 5 25 -3 10 0 20 7 23 6 2 3 5 -6 5 -9 1 -20 -3 -23 -9z"/>
<path d="M8588 7093 c6 -2 18 -2 25 0 6 3 1 5 -13 5 -14 0 -19 -2 -12 -5z"/>
<path d="M8515 7070 c-3 -5 -1 -10 4 -10 6 0 11 5 11 10 0 6 -2 10 -4 10 -3 0
-8 -4 -11 -10z"/>
<path d="M8535 6810 c-3 -6 1 -7 9 -4 18 7 21 14 7 14 -6 0 -13 -4 -16 -10z"/>
<path d="M8570 6786 c0 -4 7 -14 15 -22 8 -9 15 -11 15 -6 0 5 -7 15 -15 22
-8 7 -15 9 -15 6z"/>
<path d="M8650 6750 c19 -13 30 -13 30 0 0 6 -10 10 -22 10 -19 0 -20 -2 -8
-10z"/>
<path d="M8541 6634 c0 -11 3 -14 6 -6 3 7 2 16 -1 19 -3 4 -6 -2 -5 -13z"/>
<path d="M8568 6643 c7 -3 16 -2 19 1 4 3 -2 6 -13 5 -11 0 -14 -3 -6 -6z"/>
<path d="M8595 6620 c4 -6 11 -8 16 -5 14 9 11 15 -7 15 -8 0 -12 -5 -9 -10z"/>
<path d="M8808 6613 c7 -3 16 -2 19 1 4 3 -2 6 -13 5 -11 0 -14 -3 -6 -6z"/>
<path d="M8569 6603 c-4 -29 -3 -39 6 -45 18 -13 28 -9 15 7 -6 8 -9 19 -6 24
4 5 2 12 -4 16 -5 3 -11 3 -11 -2z"/>
<path d="M8606 6572 c5 -4 12 -11 15 -15 3 -5 9 -2 12 5 3 9 -3 14 -15 15 -11
1 -16 -1 -12 -5z"/>
<path d="M8790 6560 c0 -5 5 -10 10 -10 6 0 10 5 10 10 0 6 -4 10 -10 10 -5 0
-10 -4 -10 -10z"/>
<path d="M8614 6533 c10 -11 36 -12 36 -2 0 5 -10 9 -22 9 -12 0 -18 -3 -14
-7z"/>
<path d="M8855 6510 c-3 -5 -1 -10 4 -10 6 0 11 5 11 10 0 6 -2 10 -4 10 -3 0
-8 -4 -11 -10z"/>
<path d="M8771 6457 c0 -7 4 -21 9 -32 8 -19 9 -19 9 2 1 12 7 23 13 25 7 3 2
7 -10 10 -13 4 -22 2 -21 -5z"/>
<path d="M8820 6460 c0 -5 5 -10 10 -10 6 0 10 5 10 10 0 6 -4 10 -10 10 -5 0
-10 -4 -10 -10z"/>
<path d="M8752 6430 c0 -14 2 -19 5 -12 2 6 2 18 0 25 -3 6 -5 1 -5 -13z"/>
<path d="M8918 6443 c7 -3 16 -2 19 1 4 3 -2 6 -13 5 -11 0 -14 -3 -6 -6z"/>
<path d="M8807 6428 c2 -5 13 -8 24 -8 10 0 19 3 19 8 0 4 -11 7 -24 7 -13 0
-22 -3 -19 -7z"/>
<path d="M8925 6410 c3 -5 11 -10 16 -10 6 0 7 5 4 10 -3 6 -11 10 -16 10 -6
0 -7 -4 -4 -10z"/>
<path d="M9016 6215 c-9 -26 -7 -32 5 -12 6 10 9 21 6 23 -2 3 -7 -2 -11 -11z"/>
<path d="M9070 6190 c0 -5 5 -10 10 -10 6 0 10 5 10 10 0 6 -4 10 -10 10 -5 0
-10 -4 -10 -10z"/>
<path d="M9076 6155 c4 -8 11 -15 16 -15 6 0 5 6 -2 15 -7 8 -14 15 -16 15 -2
0 -1 -7 2 -15z"/>
<path d="M9198 6132 c-10 -2 -18 -8 -18 -13 0 -11 11 -11 30 1 18 11 11 18
-12 12z"/>
<path d="M9030 6121 c0 -5 5 -13 10 -16 6 -3 10 -2 10 4 0 5 -4 13 -10 16 -5
3 -10 2 -10 -4z"/>
<path d="M9086 6123 c-11 -11 -6 -23 9 -23 8 0 15 4 15 9 0 13 -16 22 -24 14z"/>
<path d="M9560 6090 c0 -5 5 -10 11 -10 5 0 7 5 4 10 -3 6 -8 10 -11 10 -2 0
-4 -4 -4 -10z"/>
<path d="M9040 6080 c0 -5 12 -10 28 -9 24 0 25 1 7 9 -27 12 -35 12 -35 0z"/>
<path d="M9190 6075 c-7 -9 -8 -15 -2 -15 5 0 12 7 16 15 3 8 4 15 2 15 -2 0
-9 -7 -16 -15z"/>
<path d="M9140 6070 c0 -6 7 -10 15 -10 8 0 15 2 15 4 0 2 -7 6 -15 10 -8 3
-15 1 -15 -4z"/>
<path d="M9020 6061 c0 -13 28 -33 33 -23 3 4 -3 13 -14 20 -10 7 -19 8 -19 3z"/>
<path d="M9121 6037 c2 -1 12 -9 22 -16 14 -12 17 -11 17 3 0 10 -8 16 -22 16
-12 0 -19 -1 -17 -3z"/>
<path d="M9185 6030 c3 -5 8 -10 11 -10 2 0 4 5 4 10 0 6 -5 10 -11 10 -5 0
-7 -4 -4 -10z"/>
<path d="M6210 6015 c0 -3 18 -16 40 -30 44 -28 50 -41 21 -50 -26 -8 -67 -45
-63 -58 2 -6 -4 -5 -12 3 -15 11 -20 7 -17 -12 0 -5 -6 -8 -14 -8 -8 0 -15 -4
-15 -9 0 -5 10 -7 21 -4 15 4 20 2 17 -7 -5 -17 -47 -23 -64 -9 -15 12 -38 3
-29 -12 4 -5 15 -9 26 -9 10 0 19 -4 19 -8 0 -17 174 -3 244 19 39 13 75 26
79 29 12 10 -110 103 -182 139 -61 31 -71 35 -71 26z"/>
<path d="M9250 5910 c0 -5 5 -10 11 -10 5 0 7 5 4 10 -3 6 -8 10 -11 10 -2 0
-4 -4 -4 -10z"/>
<path d="M9275 5860 c-3 -6 1 -7 9 -4 18 7 21 14 7 14 -6 0 -13 -4 -16 -10z"/>
<path d="M9240 5810 c0 -5 5 -10 10 -10 6 0 10 5 10 10 0 6 -4 10 -10 10 -5 0
-10 -4 -10 -10z"/>
<path d="M9356 5593 c-4 -10 -4 -14 0 -10 4 4 14 1 23 -6 14 -10 14 -10 4 4
-7 9 -10 19 -6 22 3 4 2 7 -4 7 -6 0 -14 -8 -17 -17z"/>
<path d="M9401 5371 c-11 -7 -11 -9 0 -14 10 -4 10 -6 2 -6 -7 -1 -13 -6 -13
-12 0 -6 7 -9 14 -6 10 4 13 1 9 -9 -3 -8 1 -14 8 -14 11 0 11 -2 -1 -10 -12
-8 -12 -10 3 -16 11 -4 23 -1 30 6 9 10 9 11 0 6 -16 -9 -22 24 -9 47 8 13 7
20 -4 27 -18 12 -21 12 -39 1z"/>
<path d="M9445 5320 c3 -5 8 -10 11 -10 2 0 4 5 4 10 0 6 -5 10 -11 10 -5 0
-7 -4 -4 -10z"/>
<path d="M9511 5294 c0 -11 3 -14 6 -6 3 7 2 16 -1 19 -3 4 -6 -2 -5 -13z"/>
<path d="M9451 5144 c0 -11 3 -14 6 -6 3 7 2 16 -1 19 -3 4 -6 -2 -5 -13z"/>
<path d="M9340 4639 c0 -5 5 -7 10 -4 6 3 10 8 10 11 0 2 -4 4 -10 4 -5 0 -10
-5 -10 -11z"/>
<path d="M9355 4410 c3 -5 8 -10 11 -10 2 0 4 5 4 10 0 6 -5 10 -11 10 -5 0
-7 -4 -4 -10z"/>
<path d="M9200 4210 c0 -5 5 -10 10 -10 6 0 10 5 10 10 0 6 -4 10 -10 10 -5 0
-10 -4 -10 -10z"/>
<path d="M6197 3653 c-25 -40 -32 -203 -9 -203 4 0 22 12 40 28 55 46 67 182
14 164 -7 -2 -19 1 -26 8 -8 6 -16 7 -19 3z"/>
<path d="M6310 3169 c0 -5 5 -7 10 -4 6 3 10 8 10 11 0 2 -4 4 -10 4 -5 0 -10
-5 -10 -11z"/>
<path d="M9205 2110 c3 -5 8 -10 11 -10 2 0 4 5 4 10 0 6 -5 10 -11 10 -5 0
-7 -4 -4 -10z"/>
<path d="M8800 229 c0 -5 5 -7 10 -4 6 3 10 8 10 11 0 2 -4 4 -10 4 -5 0 -10
-5 -10 -11z"/>
</g>
</svg>
